<svg xmlns="http://www.w3.org/2000/svg" viewBox="0 0 296.74 144.1"><defs><style>.cls-1,.cls-2{fill:#fff;}.cls-2{font-size:18px;font-family:QuicksandBook-Regular, Quicksand;}</style></defs><g id="Layer_2" data-name="Layer 2"><g id="Layer_2-2" data-name="Layer 2"><path class="cls-1" d="M112.66,106.75v-32H100.88V143c4.41-1.16,9.22,2,13-2.42,9.79,5.32,19.44,4.37,26-2.73,6.21-6.71,7.16-19.14,2.06-26.88C136.43,102.52,128.29,101.29,112.66,106.75Zm9.87,26.86c-6.74-.06-9.28-3.7-9.68-12-.23-4.76,4.32-8.56,9.71-8.7a10,10,0,0,1,10,10.33A10.2,10.2,0,0,1,122.53,133.61Z"/><path class="cls-1" d="M0,142.85c3.58,0,6.57-.15,9.54,0,2.34.15,3.88-.51,4.34-2.91,1.52-8,6.32-10.84,14.24-9.46,3.38.59,7.66-.82,10.16.8,2.33,1.51,2.83,5.84,4.14,8.92.14.34.21.79.47,1,.68.58,1.42,1.49,2.17,1.51,4.21.15,8.44.07,13.25.07-9.7-22.34-19.2-44.2-29.16-67.15C19.19,98.64,9.7,120.51,0,142.85Zm22.49-23.28,5.94-14.65,5.83,14.65Z"/><path class="cls-1" d="M173.25,103.23c-13,0-21.63,8.19-21.61,20.55s8.41,20.27,21.36,20.32,21.53-8.35,21.48-20.76C194.43,111.31,185.89,103.22,173.25,103.23Zm-.31,30.56c-5.2,0-9.11-4.43-9.07-10.22s4-10.23,9.16-10.2c5.33,0,8.86,4.13,8.85,10.28S178.38,133.83,172.94,133.79Z"/><path class="cls-1" d="M215.81,112.45c-.44-2.73-.8-5-1.15-7.19H204V142.7H216c0-5.13-.09-9.85,0-14.56.14-6.27,4-11.39,9.31-12.48,1.3-.27,2.62-.42,4.25-.67V103.16C223.71,104.29,219.59,107.89,215.81,112.45Z"/><path class="cls-1" d="M248.31,112.45c-.44-2.73-.81-5-1.16-7.19h-10.7V142.7h12.06c0-5.13-.09-9.85,0-14.56.14-6.27,4-11.39,9.31-12.48,1.3-.27,2.62-.42,4.25-.67V103.16C256.21,104.29,252.09,107.89,248.31,112.45Z"/><path class="cls-1" d="M283,112.45c-.44-2.73-.8-5-1.15-7.19H271.1V142.7h12.06c0-5.13-.09-9.85,0-14.56.14-6.27,4-11.39,9.31-12.48,1.3-.27,2.62-.42,4.25-.67V103.16C290.85,104.29,286.74,107.89,283,112.45Z"/><path class="cls-1" d="M77.16,111.49c-.25-1.88-.54-4-.83-6.24H65.71v37.47H77.48c0-4,.13-7.56,0-11.15C77,120.89,81.85,115.75,91,115c.23-3.8.45-7.62.7-11.85-1.44.35-2.66.35-3.51.9C84.48,106.38,80.9,108.92,77.16,111.49Z"/><text class="cls-2" transform="translate(102.31 35.8)">Product of</text></g></g></svg>